<svg xmlns="http://www.w3.org/2000/svg" width="478" height="437" fill="none" viewBox="0 0 478 437">
    <path fill="#31A598" d="M6.974 147.079h43.809v59.749H10.181c-.108.614-.211 1.231-.323 1.849h40.925v48.186c-.073-.021-.138-.047-.207-.073-1.157-.458-2.305-.942-3.453-1.46l-.734-.333c-1.151-.544-2.302-1.12-3.454-1.728-.4-.211-.802-.432-1.2-.656-6.39-3.582-12.195-8.121-17.214-13.459-.147-.143-.285-.294-.432-.432-.699-.76-1.385-1.529-2.05-2.315l-.734-.864c-.785-.963-1.545-1.952-2.283-2.954-.108-.147-.212-.294-.324-.432-3.002-4.165-5.495-8.675-7.425-13.433-.06-.143-.112-.298-.168-.432-.593-1.527-1.118-3.067-1.576-4.622-.198-.652-.388-1.296-.552-1.974-.06-.199-.112-.393-.16-.587-2.452-9.576-2.74-19.524-2.74-29.402v-3.455c0-3.996.047-8.017.116-12.034 0-1.041.043-2.078.064-3.123.06-2.652.147-5.304.26-7.956.025-.739.06-1.473.099-2.207 0-.424.021-.847.064-1.27.104-1.538.19-3.063.294-4.583zM50.783 80.553h-24.03c3.906-6.118 8.174-11.997 12.781-17.605 3.57-4.389 7.339-8.665 11.25-12.786v30.391zM50.783 82.402v62.828H7.113c0-.181.03-.367.042-.548.04-.497.078-.994.121-1.486.048-.579.1-1.162.156-1.728.056-.566.116-1.257.181-1.883.065-.626.125-1.261.199-1.888.073-.626.138-1.252.215-1.874.078-.622.147-1.253.23-1.875.064-.518.133-1.032.202-1.55.1-.73.203-1.465.315-2.19 0-.108.03-.221.048-.324.788-5.312 1.861-10.578 3.216-15.774 1.417-5.451 3.228-10.792 5.417-15.982 2.326-5.428 5.05-10.678 8.15-15.705l25.178-.021zM61.242 147.075v59.753h93.571v-59.753h-93.57zm0 61.597v51.314c.535.112 1.066.22 1.593.311.717.138 1.429.263 2.158.371.138.022.28.043.432.056.285.048.578.087.863.126.721.099 1.438.181 2.159.246.34.034.686.065 1.031.091l.833.064c.454.035.902.061 1.347.074.276 0 .553.026.838.034h3.077c.372 0 .743 0 1.11-.034h.025c.255 0 .514 0 .773-.035.072.005.144.005.216 0 .216 0 .432 0 .639-.03h.15l1.447-.112c.475-.044.954-.1 1.437-.151l.985-.117c4.004-.562 7.963-1.404 11.849-2.523 8.728-2.436 17.266-5.844 25.99-8.34 11.279-3.218 23.741-4.799 34.64-.864v-40.481H61.242zm93.571-128.12V1.005c-10.245-.11-20.461 1.088-30.402 3.568-23.694 5.956-44.953 18.875-63.169 35.375V80.55h4.697v1.844h-4.697v62.837h93.571V82.397H85.221v-1.844h69.592zM275 53.683c-5.862-.207-11.69-2.064-16.96-4.932-10.08-5.486-18.13-13.956-27.126-21.104-18.691-14.889-41.871-23.873-65.651-26.102v79.009H298.84l.332-.35L275 53.683zm12.168-2.16L300.07 65.69V47.808c-4.321.536-8.106 1.81-12.885 3.697l-.017.018zm12.902 221.206v-64.056h-27.492c-.073-.272-.147-.548-.233-.825.082.277.151.553.229.825H165.281v46.325c1.018.756 2.024 1.551 3.021 2.358 1.075.864 2.137 1.776 3.203 2.67l1.075.889c.514.432 1.032.864 1.554 1.27 1.036.841 2.082 1.67 3.138 2.488.522.432 1.058.821 1.589 1.227 8.429 6.449 17.32 12.268 26.603 17.411 2.08 1.152 4.18 2.276 6.298 3.373 1.411.722 2.831 1.439 4.256 2.134 2.141 1.045 4.299 2.053 6.475 3.024 20.057 9.009 41.267 15.191 63.022 18.37 4.831.714 9.682 1.275 14.551 1.684v-39.172h.432l-.428.005zM165.281 82.398v62.832h134.807V82.397H165.281zm0 64.677v59.753h134.807v-59.753H165.281zm145.27-99.344v19.946l16.468-18.08c-5.456-.882-10.946-1.51-16.468-1.888v.021zm0 99.365v59.732h131.116v-59.753l-131.116.021zM441.188 277.47l.462-68.798H310.551v103.91c8.445.355 16.904.254 25.338-.302h.147c4.029-.254 8.039-.622 12.03-1.106h.091c21.294-2.48 42.116-8.039 61.814-16.504l31.217-17.2zm25.761-120.556c-.492-1.162-1.005-2.315-1.528-3.455-.975-2.16-2.007-4.259-3.069-6.358h-10.23v59.727h25.865c-.013-16.914-4.291-34.192-11.025-49.936l-.013.022zm-14.827 51.78v59.175c7.286-6.989 13.442-14.984 17.875-24.124 5.331-11.005 7.77-22.922 7.968-35.06l-25.843.009zm0-79.009v15.55h9.272c-2.805-5.353-5.896-10.551-9.259-15.572l-.013.022zM363.2 59.453c-.682-.26-1.364-.523-2.05-.777-7.239-2.675-14.636-4.9-22.148-6.66l-25.201 27.673-.483.514.324.354h89.69c-12.492-8.604-25.958-15.695-40.119-21.126l-.013.022zm42.76 22.966h-93.57l-1.839 1.684v61.127h131.133v-29.609c-10.402-12.588-22.407-23.758-35.711-33.224l-.013.022z" opacity=".1"/>
    <path fill="#31A598" d="M50.783 114.092v31.138H7.113c0-.181.03-.367.042-.548.04-.497.078-.994.121-1.486.048-.579.1-1.162.156-1.728.056-.566.116-1.257.181-1.883.065-.626.125-1.261.199-1.888.073-.626.138-1.252.215-1.874.078-.622.147-1.253.23-1.875.064-.518.133-1.032.202-1.55.1-.73.203-1.465.315-2.19 0-.108.03-.221.048-.324.788-5.312 1.861-10.578 3.216-15.774l38.745-.018zM6.974 147.079h43.809v59.749H10.181c-.108.614-.211 1.231-.323 1.849h40.925v48.186c-.073-.021-.138-.047-.207-.073-1.157-.458-2.305-.942-3.453-1.46l-.734-.333c-1.151-.544-2.302-1.12-3.454-1.728-.4-.211-.802-.432-1.2-.656-6.39-3.582-12.195-8.121-17.214-13.459-.147-.143-.285-.294-.432-.432-.699-.76-1.385-1.529-2.05-2.315l-.734-.864c-.785-.963-1.545-1.952-2.283-2.954-.108-.147-.212-.294-.324-.432-3.002-4.165-5.495-8.675-7.425-13.433-.06-.143-.112-.298-.168-.432-.593-1.527-1.118-3.067-1.576-4.622-.198-.652-.388-1.296-.552-1.974-.06-.199-.112-.393-.16-.587-2.452-9.576-2.74-19.524-2.74-29.402v-3.455c0-3.996.047-8.017.116-12.034 0-1.041.043-2.078.064-3.123.06-2.652.147-5.304.26-7.956.025-.739.06-1.473.099-2.207 0-.424.021-.847.064-1.27.104-1.538.19-3.063.294-4.583zM94.182 91.394v53.836h-32.94V91.394h4.697V73.167h19.278v18.227h8.965zM94.183 147.075H61.247v59.749h32.936v-59.749zM61.242 208.677h32.94v49.672c-3.886 1.117-7.845 1.959-11.849 2.518l-.984.121c-.484.056-.963.104-1.438.151-.474.048-.966.082-1.446.112h-.15c-.208 0-.432.026-.635.031h-.22c-.26 0-.518.026-.777.034-.367.022-.734.026-1.11.03h-3.056l-.833-.03c-.432 0-.898-.047-1.347-.078l-.829-.06-1.031-.095c-.725-.065-1.446-.147-2.159-.246l-.863-.121-.431-.061c-.721-.112-1.434-.233-2.159-.371-.53-.091-1.057-.203-1.593-.311l-.03-51.296zM300.088 85.036h-27.16v60.19h27.16v-60.19zM300.092 147.075v59.753H165.28v-25.773h71.807v15.204h35.84v-49.184h27.165zM300.519 272.741h-.432v39.197c-4.863-.411-9.712-.971-14.547-1.68-21.765-3.188-42.984-9.384-63.048-18.409-5.793-2.609-11.467-5.456-17.024-8.543-9.283-5.146-18.175-10.965-26.608-17.412-2.118-1.624-4.208-3.285-6.272-4.984-1.429-1.179-2.849-2.389-4.286-3.563-.997-.808-2.003-1.603-3.022-2.363v-46.307h107.289c-.073-.277-.147-.553-.224-.825.082.272.159.548.233.825h27.509v64.038c.147.004.289.017.432.026zM370.923 80.553h-17.698v-5.502h7.933V58.659c.688.25 1.373.508 2.055.773V75.05h7.71v5.503zM413.562 145.23h-86.884l.03.022-.039-.022h-16.118V85.04h4.567v44.49h20.87v-26.348h17.241v-20.78h17.698v20.797h17.24v26.348h25.395v15.683zM310.551 147.075v59.753h103.011v-59.753H310.551zm130.974 130.089l.142-47.296h-28.105v-21.165H310.551v103.879c8.445.355 16.904.254 25.338-.302h.147c4.029-.253 8.039-.622 12.03-1.106h.091c21.294-2.48 42.115-8.039 61.813-16.504M453.953 208.677h24.03c-.211 12.133-2.646 24.05-7.973 35.055-4.433 9.144-10.593 17.139-17.87 24.124v-38.01h1.813v-21.169zM477.996 206.828h-24.044v-49.935h13.01c6.734 15.743 11.012 33.021 11.034 49.935z" opacity=".1"/>
    <path fill="#31A598" d="M300.092 101.769h-14.551v18.871h14.551v-18.871zM300.092 140.885h-14.551v4.345h14.551v-4.345zM300.092 147.075h-14.551v12.677h14.551v-12.677zM300.092 180.001h-14.551v18.871h14.551v-18.871zM300.092 219.116h-14.551v18.872h14.551v-18.872zM300.088 272.715c.147 0 .289 0 .432.026h-.432v4.384h-14.547v-18.893h14.547v14.483zM300.088 297.339v14.578c-4.863-.412-9.712-.972-14.547-1.68v-12.898h14.547zM227.642 205.441H165.28v1.386h62.362v-1.386zM227.642 208.672H165.28v5.313h62.362v-5.313zM227.642 231.401H165.28v8.543h62.362v-8.543zM227.638 257.36v8.543h-48.777c-2.118-1.618-4.211-3.279-6.277-4.984-1.429-1.179-2.844-2.389-4.286-3.559h59.34zM227.638 283.314v8.535h-5.15c-5.787-2.611-11.46-5.461-17.02-8.547l22.17.012zM348.17 152.867h-12.276v12.284h12.276v-12.284zM82.363 95.632H70.087v12.284h12.276V95.632zM82.363 124.165H70.087v12.284h12.276v-12.284zM82.363 152.699H70.087v12.284h12.276v-12.284zM82.363 181.227H70.087v12.284h12.276v-12.284zM82.363 209.761H70.087v12.284h12.276v-12.284zM82.363 238.294H70.087v12.284h12.276v-12.284zM395.035 152.867h-12.276v12.284h12.276v-12.284zM348.17 183.167h-12.276v12.284h12.276v-12.284zM395.035 183.167h-12.276v12.284h12.276v-12.284zM348.17 213.462h-12.276v12.285h12.276v-12.285zM395.035 213.462h-12.276v12.285h12.276v-12.285zM348.17 243.762h-12.276v12.285h12.276v-12.285zM395.035 243.762h-12.276v12.285h12.276v-12.285zM348.17 274.062h-12.276v12.285h12.276v-12.285zM395.035 274.062h-12.276v12.285h12.276v-12.285zM335.894 312.28v-7.922h12.272v6.794l-12.272 1.128zM8.77 129.875v7.028h42.013v-7.028H8.77zm4.187 6.587H9.529v-6.155h3.454l-.026 6.155zm4.182 0h-3.453v-6.155h3.453v6.155zm4.175 0H17.86v-6.155h3.454v6.155zm4.182 0h-3.449v-6.155h3.454l-.005 6.155zm4.179 0H26.22v-6.155h3.454v6.155zm4.183 0h-3.454v-6.155h3.454v6.155zm4.182 0h-3.453v-6.155h3.453v6.155zm4.179 0h-3.453v-6.155h3.453v6.155zm4.178 0h-3.453v-6.155h3.453v6.155zm4.179 0h-3.454v-6.155h3.454v6.155zM8.77 150.323v7.028h42.013v-7.028H8.77zm4.187 6.583H9.529v-6.138h3.454l-.026 6.138zm4.182 0h-3.453v-6.138h3.453v6.138zm4.175 0H17.86v-6.138h3.454v6.138zm4.182 0h-3.449v-6.138h3.454l-.005 6.138zm4.179 0H26.22v-6.138h3.454v6.138zm4.183 0h-3.454v-6.138h3.454v6.138zm4.182 0h-3.453v-6.138h3.453v6.138zm4.179 0h-3.453v-6.138h3.453v6.138zm4.178 0h-3.453v-6.138h3.453v6.138zm4.179 0h-3.454v-6.138h3.454v6.138zM8.77 170.779v7.041h42.013v-7.041H8.77zm4.187 6.583H9.529v-6.142h3.454l-.026 6.142zm4.182 0h-3.453v-6.142h3.453v6.142zm4.175 0H17.86v-6.142h3.454v6.142zm4.182 0h-3.449v-6.142h3.454l-.005 6.142zm4.179 0H26.22v-6.142h3.454v6.142zm4.183 0h-3.454v-6.142h3.454v6.142zm4.182 0h-3.453v-6.142h3.453v6.142zm4.179 0h-3.453v-6.142h3.453v6.142zm4.178 0h-3.453v-6.142h3.453v6.142zm4.179 0h-3.454v-6.142h3.454v6.142zM8.77 191.236v7.019h42.013v-7.019H8.77zm4.187 6.582H9.529v-6.146h3.454l-.026 6.146zm4.182 0h-3.453v-6.146h3.453v6.146zm4.175 0H17.86v-6.146h3.454v6.146zm4.182 0h-3.449v-6.146h3.454l-.005 6.146zm4.179 0H26.22v-6.146h3.454v6.146zm4.183 0h-3.454v-6.146h3.454v6.146zm4.182 0h-3.453v-6.146h3.453v6.146zm4.179 0h-3.453v-6.146h3.453v6.146zm4.178 0h-3.453v-6.146h3.453v6.146zm4.179 0h-3.454v-6.146h3.454v6.146zM8.951 211.687c.169.661.358 1.322.557 1.974v-1.533h3.453v6.142h-1.847c.056.142.112.298.168.432h39.501v-7.015H8.951zm8.202 6.583h-3.454v-6.142h3.454v6.142zm4.174 0h-3.453v-6.142h3.453v6.142zm4.183 0h-3.462v-6.142H25.5l.009 6.142zm4.178 0h-3.453v-6.142h3.453v6.142zm4.183 0h-3.454v-6.142h3.454v6.142zm4.183 0H34.6v-6.142h3.454v6.142zm4.178 0h-3.453v-6.142h3.453v6.142zm4.178 0h-3.453v-6.142h3.453v6.142zm4.179 0h-3.453v-6.142h3.453v6.142zM18.707 232.144c.108.138.212.294.324.432h2.283v2.95c.246.294.488.587.738.864v-3.832h3.454v6.164h-1.399c.138.143.272.294.432.432h26.258v-7.01h-32.09zm10.968 6.578h-3.453v-6.138h3.453v6.138zm4.183 0h-3.453v-6.138h3.453v6.138zm4.183 0h-3.453v-6.138h3.453v6.138zm4.178 0h-3.453v-6.138h3.453v6.138zm4.179 0h-3.453v-6.138h3.453v6.138zm4.178 0h-3.453v-6.138h3.453v6.138zM41.753 252.595c.393.225.794.432 1.2.657v-.216h3.453v1.944l.734.341v-2.285h3.453v3.736c.066.033.136.059.207.078v-4.255h-9.047zM326.678 145.23h.026-.026zm-26.59 127.48h.431-.431zm-27.743-64.863c.082.277.151.553.229.825-.069-.272-.143-.548-.229-.825zm54.333-62.63h.026-.026zM65.956 80.54v1.844h19.282V80.54H65.956zm234.132 192.17h.431-.431zm-27.743-64.863c.082.277.151.553.229.825-.069-.272-.143-.548-.229-.825zm54.333-62.63h.026-.026zm-26.59 127.48h.431-.431zm-27.743-64.85c.082.277.151.553.229.825-.069-.272-.143-.548-.229-.825z" opacity=".1"/>
    <g opacity=".1">
        <path fill="#000" d="M173.871 94.967c-.531.458-1.213.786-1.567 1.395-.302.523-.311 1.166-.552 1.728-.242.561-.946 1.02-1.434.665-.112-3.887-2.028-7.537-4.381-10.647-.658-.939-1.457-1.77-2.37-2.462-.924-.695-2.073-1.02-3.224-.911-1.295.177-2.435 1.058-3.743 1.166-1.726.147-3.276-1.05-4.99-1.11-.696.007-1.383.163-2.014.457-.631.294-1.193.72-1.646 1.249-.901 1.063-1.57 2.304-1.964 3.641-.678 2.03-1.048 4.15-1.096 6.289-.026 1.205-.139 2.708-1.252 3.157.026.32.026.64 0 .959 1.122-.432 1.234-1.952 1.26-3.161.048-2.14.418-4.26 1.097-6.29.394-1.338 1.062-2.58 1.964-3.645.454-.527 1.015-.952 1.647-1.245.631-.294 1.317-.45 2.013-.457 1.727.06 3.281 1.253 4.99 1.11 1.295-.108 2.443-.993 3.743-1.166 1.15-.108 2.3.217 3.224.912.913.692 1.712 1.523 2.37 2.462 2.352 3.105 4.269 6.746 4.381 10.642.488.359 1.192-.108 1.433-.66.242-.553.251-1.201.553-1.728.354-.61 1.036-.933 1.567-1.391 1.346-1.162 1.683-3.118 1.631-4.894v-.164c-.082 1.538-.492 3.106-1.64 4.1zM142.006 94.66c-.993-1.093-2.348-1.823-3.259-2.98-.767-1.025-1.205-2.258-1.256-3.538-.136 1.599.31 3.193 1.256 4.488.911 1.162 2.266 1.892 3.259 2.985.953 1.069 1.525 2.424 1.627 3.853.066-.87-.044-1.744-.323-2.57-.28-.826-.723-1.587-1.304-2.238zM176.352 81.62c-.254 1.058-.707 2.065-.914 3.132-.123.713-.168 1.437-.134 2.16.014-.412.059-.822.134-1.227.207-1.072.66-2.074.914-3.132.148-.584.197-1.188.142-1.788-.026.288-.074.574-.142.855z" opacity=".1"/>
    </g>
    <path fill="#31A598" d="M58.294 329.523c23.23 0 42.061-3.027 42.061-6.76 0-3.733-18.831-6.76-42.06-6.76-23.23 0-42.062 3.027-42.062 6.76 0 3.733 18.832 6.76 42.061 6.76z" opacity=".1"/>
    <path fill="#535461" d="M59.65 193.27h-2.707v60.976h2.707V193.27z"/>
    <path fill="#3F3D56" d="M76.657 254.06l-.168 2.747-.242 3.887-.1 1.616-.237 3.887-.103 1.616-.242 3.887-2.728 44.087c-.118 1.897-.955 3.678-2.34 4.979-1.383 1.302-3.21 2.027-5.11 2.027H51.202c-1.899 0-3.726-.726-5.11-2.027-1.383-1.302-2.218-3.082-2.336-4.979l-2.715-44.117-.242-3.888-.099-1.615-.242-3.887-.099-1.616-.242-3.887-.172-2.747c-.03-.529.048-1.058.23-1.556.181-.497.463-.952.827-1.337.363-.384.802-.69 1.288-.899.487-.209 1.01-.317 1.54-.316H72.84c.528.005 1.048.117 1.53.331.483.214.916.524 1.273.912.358.388.632.844.806 1.342.175.498.245 1.027.207 1.553z"/>
    <path fill="#9D9CB5" d="M76.488 256.807l-.241 3.875H40.34l-.241-3.875h36.388zM76.147 262.297l-.237 3.879H40.682l-.242-3.879h35.707zM75.806 267.795l-.237 3.875H41.023l-.242-3.875h35.025z"/>
    <path fill="#31A598" d="M35.968 216.123c15.76 11.412 22.339 29.259 22.339 29.259s-18.993-.652-34.758-12.064C7.785 221.907 1.22 204.064 1.22 204.064s18.985.648 34.75 12.059z"/>
    <path stroke="#535461" stroke-miterlimit="10" stroke-width=".863" d="M1.207 204.064s19.718 10.949 26.042 20.015c6.324 9.067 31.058 21.303 31.058 21.303"/>
    <path fill="#31A598" d="M46.143 193.136c8.577 6.207 12.164 15.921 12.164 15.921s-10.338-.354-18.92-6.561c-8.581-6.207-12.16-15.925-12.16-15.925s10.334.354 18.916 6.565z"/>
    <path stroke="#535461" stroke-miterlimit="10" stroke-width=".863" d="M27.227 186.571s10.732 5.96 14.172 10.893c3.44 4.933 16.908 11.593 16.908 11.593"/>
    <path fill="#31A598" d="M70.76 208.565c-9.855 10.837-11.94 25-11.94 25s13.895-3.413 23.741-14.254c9.847-10.842 11.94-25 11.94-25s-13.886 3.416-23.741 14.254z"/>
    <path stroke="#535461" stroke-miterlimit="10" stroke-width=".863" d="M94.51 194.315s-12.838 11.109-16.101 18.763c-3.263 7.654-19.589 20.487-19.589 20.487"/>
    <g clip-path="url(#clip0)">
        <path fill="#3F3D56" d="M333.861 418.557H421.9c.187 0 .366-.074.498-.206s.206-.311.206-.498-.074-.366-.206-.498-.311-.207-.498-.207h-88.039c-.187 0-.366.075-.498.207s-.207.311-.207.498.075.366.207.498.311.206.498.206z"/>
        <path fill="#FFB8B8" d="M346.788 197.893c.816.516 1.51 1.204 2.032 2.017.521.813.859 1.73.988 2.688.129.957.046 1.931-.241 2.854-.288.922-.775 1.77-1.425 2.483l6.4 13.677-7.357 5.919-8.768-19.441c-1.126-1.173-1.782-2.719-1.845-4.345-.063-1.625.472-3.217 1.504-4.474 1.032-1.257 2.489-2.091 4.094-2.345 1.606-.254 3.249.09 4.618.967z"/>
        <path fill="#B3B6BA" d="M383.568 203.443c-2.026-1.218-4.442-1.608-6.748-1.091-2.305.517-4.324 1.902-5.636 3.869l-13.097 19.622-4.546-10.03c-.284-.626-.787-1.127-1.414-1.408-.628-.281-1.336-.323-1.992-.118l-6.862 2.145c-.359.112-.691.294-.978.537-.287.243-.523.54-.693.875-.17.335-.272.701-.299 1.075-.027.375.021.752.141 1.108l4.698 13.88c.594 1.755 1.587 3.349 2.9 4.657 1.314 1.307 2.912 2.292 4.67 2.877s3.627.754 5.462.495c1.834-.26 3.583-.941 5.11-1.991.713-.491 1.372-1.057 1.963-1.69l19.3-20.635c.937-1.002 1.639-2.201 2.053-3.509.414-1.309.531-2.693.341-4.052-.19-1.36-.681-2.659-1.438-3.804-.756-1.145-1.759-2.106-2.935-2.812z"/>
        <path fill="#3F3D56" d="M341.201 183.168c-.351.009-.685.157-.928.412-.242.255-.373.595-.364.947l.113 4.555-.229.021.082 3.093.223-.028.405 16.317c.014.559.231 1.093.609 1.503.379.411.894.67 1.449.728l10.369 1.092c.252.027.508-.002.748-.085.24-.082.459-.216.642-.392.182-.177.325-.391.416-.628.091-.237.13-.491.113-.744l-1.573-23.234c-.033-.488-.231-.951-.561-1.311-.331-.361-.774-.598-1.257-.673l-10.01-1.556c-.081-.013-.164-.019-.247-.017z"/>
        <path fill="#fff" d="M349.226 185.586l-5.262-.818c-.095-.014-.182-.06-.248-.129-.067-.07-.108-.159-.119-.254-.011-.108-.058-.209-.133-.288-.075-.078-.174-.13-.282-.147l-1.108-.172c-.151-.023-.306-.013-.453.029-.147.043-.282.118-.398.219-.115.101-.206.226-.268.366-.061.14-.091.292-.087.445l.569 23.657c.008.294.122.575.323.789.201.214.473.347.766.373l10.361.922c.132.011.265-.006.39-.05.125-.044.239-.115.334-.208.095-.093.17-.205.217-.328.048-.124.069-.257.061-.389l-1.398-23.02c-.021-.339-.157-.661-.385-.912-.229-.251-.537-.417-.872-.469l-1.169-.182c-.042.183-.153.343-.308.448-.156.105-.346.147-.531.118z"/>
        <path fill="#FFB8B8" d="M373.639 410.003h-8.052l-3.829-31.077 11.884.001-.003 31.076z"/>
        <path fill="#363D45" d="M350.058 417.483l25.306.002v-9.783l-15.528-.002c-1.284 0-2.556.253-3.742.745-1.186.491-2.264 1.212-3.172 2.12-.908.909-1.628 1.987-2.12 3.174-.491 1.187-.744 2.459-.744 3.744z"/>
        <path fill="#FFB8B8" d="M398.387 410.003h-8.052l-3.829-31.077 11.884.001-.003 31.076z"/>
        <path fill="#363D45" d="M374.805 417.483l25.306.002v-9.783l-15.528-.002c-2.593 0-5.08 1.031-6.914 2.865-1.834 1.835-2.864 4.323-2.864 6.918z"/>
        <path fill="#FFB8B8" d="M374.805 192.881c-9.554 0-17.299-7.75-17.299-17.31 0-9.56 7.745-17.31 17.299-17.31 9.554 0 17.299 7.75 17.299 17.31 0 9.56-7.745 17.31-17.299 17.31z"/>
        <path fill="#363D45" d="M365.902 221.883c.141-4.451 1.393-8.795 3.642-12.637 2.249-3.842 5.422-7.06 9.232-9.36 4.469-2.636 9.361-3.663 13.253.231 2.337 2.397 4.208 5.208 5.519 8.289 3.6 8.396 3.836 17.856.658 26.422l-9.263 25.606-21.439 2.324c-.402.044-.81 0-1.194-.128-.384-.128-.736-.338-1.032-.614-.296-.277-.529-.614-.683-.989-.154-.375-.225-.779-.209-1.184l1.516-37.96z"/>
        <path fill="#363D45" d="M387.584 257.281s16.017 5.983 11.829 31.319c-3.758 22.734-.771 98.194-.119 113.448.031.727-.22 1.438-.701 1.983-.481.546-1.155.884-1.88.944l-9.349.78c-.733.061-1.46-.167-2.027-.635-.567-.468-.928-1.139-1.008-1.87l-4.829-44.381c-.019-.174-.102-.335-.233-.451-.131-.116-.3-.18-.476-.178-.175.003-.343.07-.471.189-.128.12-.207.282-.222.457l-3.598 42.705c-.061.72-.395 1.388-.934 1.869-.539.48-1.241.735-1.962.712l-7.854-.249c-.37-.011-.734-.096-1.071-.249-.338-.152-.642-.37-.895-.64s-.451-.588-.581-.935c-.13-.347-.191-.716-.179-1.086l4.626-140.773 21.934-2.959zM371.333 174.43c-5.785 2.375-13.174-.399-15.971-5.995-2.797-5.596-.583-13.175 4.785-16.383 5.369-3.208 13.087-1.564 16.684 3.554 2.926-5.275 10.592-6.619 15.855-3.676 5.263 2.943 8.129 9.108 8.469 15.132.34 6.023-1.49 11.957-3.722 17.561-3.611 9.065-15.237 13.946-24.231 10.173 4.118-6.136 3.305-15.116-1.869-20.366z"/>
        <path fill="#31A598" d="M348.019 199.992c.154 0 .304-.05.427-.142l.008-.006 1.608-1.231c.074-.057.137-.129.184-.21.047-.081.077-.171.09-.264.012-.093.006-.188-.018-.279-.025-.09-.067-.176-.124-.25-.057-.075-.128-.137-.209-.184-.082-.047-.171-.078-.264-.09-.093-.012-.188-.006-.279.018-.09.024-.175.066-.25.123l-1.042.8-2.461-3.214c-.057-.074-.129-.137-.21-.184-.081-.047-.171-.077-.264-.09-.093-.012-.187-.006-.278.018-.091.025-.176.067-.25.124l.015.021-.016-.021c-.15.115-.248.286-.273.474-.025.188.026.378.141.528l2.896 3.779c.067.087.153.157.251.206.099.048.207.073.317.073l.001.001z"/>
        <path fill="#FFB8B8" d="M353.506 233.489c.889-.377 1.85-.553 2.815-.518.965.036 1.91.282 2.769.723.859.441 1.612 1.064 2.204 1.827.592.763 1.01 1.647 1.224 2.589l14.876 2.55.656 9.423-20.957-3.896c-1.605.255-3.248-.088-4.618-.964-1.369-.877-2.37-2.225-2.812-3.79-.442-1.566-.295-3.239.413-4.703.708-1.464 1.928-2.617 3.43-3.241z"/>
        <path fill="#B3B6BA" d="M379.057 206.441c-2.155.969-3.855 2.731-4.747 4.92-.892 2.19-.908 4.639-.044 6.84l8.623 21.961-10.825-1.99c-.676-.125-1.374.002-1.963.357s-1.028.913-1.234 1.569l-2.158 6.862c-.113.359-.153.736-.117 1.11.035.375.144.738.322 1.069.177.331.419.624.712.86.292.236.628.411.989.516l14.07 4.065c1.78.514 3.655.608 5.477.276 1.822-.333 3.543-1.084 5.027-2.194 1.483-1.11 2.69-2.549 3.524-4.204.834-1.655 1.274-3.481 1.284-5.335.005-.866-.084-1.731-.265-2.578l-5.912-27.636c-.288-1.342-.871-2.603-1.708-3.69-.837-1.087-1.907-1.973-3.13-2.593-1.224-.621-2.57-.959-3.942-.991-1.371-.032-2.732.243-3.983.806z"/>
    </g>
    <path fill="#00BFA6" d="M165.078 329.84c-30.419 0-55.078-3.176-55.078-7.093s24.659-7.092 55.078-7.092c30.419 0 55.078 3.175 55.078 7.092s-24.659 7.093-55.078 7.093zM157.925 134.445h12.883v12.889h-12.883v-12.889zM157.925 166.237h12.883v12.889h-12.883v-12.889zM157.925 198.025h12.883v12.889h-12.883v-12.889zM157.925 229.817h12.883v12.89h-12.883v-12.89z" opacity=".1"/>
    <path fill="url(#paint0_linear)" d="M118.592 188.884s7.479-37.226 4.616-41.858c0 0-.104-4.306.068-9.794v-.63c-.503.336-1.029.639-1.572.907-2.637 1.355-5.666 1.747-8.561 1.105l2.265-2.524c.544-.603 1.11-1.255 1.228-2.053.117-.798-.209-1.509-.49-2.221-2.151-5.438-2.265-12.277 1.88-16.428 3.502-3.49 4.353-7.995 8.154-11.181 2.777-2.334 4.303-5.756 5.744-9.064 1.218-2.796 2.446-5.615 3.143-8.58.544-2.315.761-4.713 1.509-6.974.747-2.262 2.147-4.46 4.335-5.47.779-.358 1.644-.562 2.355-1.038.933-.63 1.495-1.654 2.17-2.552 3.429-4.532 14.912-1.862 20.348-.022 1.478.463 2.846 1.222 4.023 2.23l-.05-.082c-.041-.068-.091-.136-.136-.204.595.481 1.109 1.055 1.522 1.7.793 1.255 1.123 2.719 1.785 4.078.797 1.61 5.232 6.1 3.325 7.909-.134.121-.287.22-.453.29-.716.298-1.505.377-2.265.226l.081.195c.651 1.596.985 3.303.983 5.026 0 7.446-6.138 13.483-13.716 13.483-1.425.002-2.841-.217-4.199-.648-.032.172-.059.345-.091.517 0 .068-.023.136-.032.204l.24.335c.012-.021.026-.04.041-.059l7.112 9.943c1.087.766 7.347 5.298 7.701 8.697.371 3.721.743 8.077.743 8.077l.049.933c.311.26.675.449 1.066.555.391.106.8.125 1.199.057 2.22-.363 2.22 8.158 2.22 8.158s1.477 1.359 2.491.181c1.015-1.178 3.697 2.814 3.697 2.814l16.805.726.385.022.906-2.805c.098-.296.308-.542.585-.683.278-.142.6-.168.897-.074.07.023.138.052.203.086l.064.036.118.082.059.054c.032.03.062.062.09.096l.055.063.027.027c.104.145.174.312.202.488.028.177.015.357-.039.527l-.779 2.407c3.243.652 6.559 2.492 3.855 7.559l13.707-2.533-4.435 3.725-22.894 4.727c.304.544.105 1.333-.842 2.443-4.077 4.79-11.506 6.091-14.496 6.426-.789 1.767-1.775 3.44-2.94 4.986l.259 4.772s7.569 36.374 8.955 38.219c-.7-.793-1.34-1.637-1.916-2.525 2.197 7.474 5.268 17.703 6.075 19.234 1.295 2.448 2.495 12.35 1.019 12.985-.453.195-1.749.1-3.597-.041v.82l.082 31.086s-.372 19.066.647 20.883c1.02 1.818 1.291 5.629 1.291 5.629s4.077 7.519 7.307 10.542c.022.023.046.045.072.063l.1-.707s3.882 4.904 12.471 4.627c0 0 5.168 3.363-2.496 3.545-7.665.181-17.454-.272-17.454-.272s-6.835-10.424-12.561-9.064v7.899h-1.753v-8.026c-.813-.536-1.509-1.231-2.045-2.043-.537-.813-.903-1.726-1.076-2.684-.15-.988-.04-1.998.319-2.93.359-.932.955-1.755 1.729-2.386.347-.315.626-.698.819-1.125.192-.428.294-.89.299-1.359l.064.054c0-.158.041-.321.059-.489.503-4.079 1.132-12.495-1.092-18.722-3.049-8.538-3.973-20.431-1.753-27.51.716-2.262 1.304-4.564 1.762-6.893.054-.294.104-.575.15-.838-1.518.205-3.02.508-4.499.906-5.141 1.419-16.388 1.682-25.992 1.604-.022.263-.05.54-.081.816-.171 1.922-.529 3.822-1.069 5.674-1.205 3.626-1.758 19.611-1.758 19.611s-1.554 13.143-.706 18.49c.453 2.973.905 5.96 1.164 8.96v.059s2.545 7.251 4.407 11.19c.046.1.095.199.141.294.496.046.985.154 1.454.322 0 0 2.496 4.985 4.983 5.81 2.486.825 1.662 3.54-3.969 2.543-5.63-.997-14.133-1.813-14.133-1.813l-.367-5.085-1.73-2.166.453 5.071-1.844-.363.245-6.168-2.831-3.544s-3.42-3.045 1.662-9.037v.132c.055-.086.104-.177.163-.263v-.027c.843-1.306 1.513-3.739.286-8.058-2.22-7.804-3.511-14.888-3.511-14.888s-4.955-18.976 1.001-27.954h-.262c.61-1.263 1.041-2.605 1.281-3.988.031-.163.058-.331.082-.503-4.408-.254-8.734-1.051-12.262-2.774.013-.018 2.138-45.048 3.895-52.218zm55.957-31.407v.09l.906.046-.906-.136zm3.108.43c.149.033.288.1.407.195.39.552.634 1.192.712 1.863l1.413-.317s.992-.213 2.419-.454l.675-.679c-1.857-.154-3.787-.381-5.626-.608z"/>
    <path fill="#1D2366" d="M130.896 312.07l.539 6.422-1.808-.363.272-6.966.997.907z"/>
    <path fill="#FFB0B1" d="M172.13 281.578c2.179 6.209 1.563 14.589 1.074 18.658-.181 1.505-.349 2.421-.349 2.421s3.257 7.423 3.529 7.704c.271.281 9.585 5.969 9.585 5.969l6.509 3.802s6.605-2.896 3.438-3.893c-.647-.26-1.229-.657-1.708-1.165-3.17-3.013-7.152-10.505-7.152-10.505s-.272-3.802-1.268-5.611c-.997-1.808-.635-20.811-.635-20.811l-.077-30.976v-4.038l-12.389.09c-.078 1.371-.256 2.734-.534 4.079-.445 2.321-1.021 4.615-1.726 6.871-2.183 7.065-1.277 18.898 1.703 27.405z"/>
    <path fill="#000" d="M172.855 302.657s3.257 7.423 3.529 7.704c.271.281 9.585 5.969 9.585 5.969l6.509 3.802s6.605-2.896 3.438-3.893c-.647-.26-1.229-.657-1.708-1.165l-.28 1.981-2.17-.091-18.572-16.718c-.164 1.495-.331 2.411-.331 2.411z" opacity=".1"/>
    <path fill="#363D45" d="M173.081 300.667l18.676 16.832 2.17.091.453-3.173s3.796 4.886 12.231 4.614c0 0 5.064 3.349-2.442 3.53-7.506.182-17.091-.272-17.091-.272s-6.695-10.423-12.299-9.064v7.872h-1.721v-7.944c-.8-.539-1.483-1.235-2.008-2.045-.525-.81-.88-1.717-1.045-2.669-.149-.979-.044-1.981.306-2.908.35-.927.933-1.748 1.692-2.385.339-.318.609-.702.795-1.128.185-.426.281-.886.283-1.351z"/>
    <path fill="#FFB0B1" d="M129.175 291.258c1.205 4.306.548 6.731-.277 8.031v.027c-1.057 1.606-1.792 3.403-2.165 5.289l-.072.408 8.498 12.395 4.611 1.813s7.415-2.533 6.061-3.258c-.34-.177-.87-1.12-1.477-2.421-1.812-3.92-4.312-11.153-4.312-11.153v-.059c-.263-2.986-.68-5.964-1.142-8.928-.829-5.334.693-18.427.693-18.427s.544-15.921 1.722-19.543c.531-1.841.885-3.729 1.055-5.637.245-2.266.299-4.134.299-4.134s-4.883-6.798-13.834.544c-.716.586-1.346 1.269-1.871 2.031-6.183 8.801-1.205 28.189-1.205 28.189s1.246 7.052 3.416 14.833z"/>
    <path fill="#000" d="M126.647 305.013l8.498 12.395 4.611 1.813s7.416-2.533 6.061-3.258c-.34-.177-.87-1.12-1.477-2.42-3.139-.028-4.765 2.963-4.765 2.963l-3.977-.634s-5.246-10.315-6.423-10.945c-1.178-.63-.182-4.709-.182-4.709v-1.038c-.031.037-.059.077-.095.114v.027c-1.057 1.606-1.792 3.402-2.165 5.289l-.086.403z" opacity=".1"/>
    <path fill="#363D45" d="M139.302 316.774s2.265-4.16 6.605-2.624c0 0 2.441 4.985 4.883 5.792 2.441.807 1.626 3.526-3.891 2.534-5.518-.993-13.834-1.813-13.834-1.813l-.363-5.072-5.608-7.147s-3.343-3.032 1.631-9v1.037s-.996 4.079.181 4.709c1.178.63 6.405 10.95 6.405 10.95l3.991.634z"/>
    <path fill="#000" d="M172.674 243.214c-.078 1.371-.256 2.734-.534 4.079 5.101-.748 9.834-.376 12.937-.131v-4.038l-12.403.09zM126.461 249.364s7.248.354 15.89.426c.245-2.266.299-4.133.299-4.133s-4.883-6.798-13.834.544c-.715.585-1.345 1.269-1.871 2.03-.14.387-.302.765-.484 1.133z" opacity=".1"/>
    <path fill="#05548A" d="M126.462 248.548s31.745 1.537 41.421-1.178c9.675-2.715 19.265-.363 20.71-.993 1.445-.63.272-10.496-.997-12.939-1.268-2.442-8.226-27.147-8.226-27.147l-6.695-34.924-7.053-1.944-.498-.14-12.29-3.39-9.005-2.488s-17.906 69.943-16.371 75.1c.558 1.975.648 4.053.263 6.069-.234 1.376-.658 2.714-1.259 3.974z"/>
    <path fill="#C7DAF5" d="M196.012 147.483s6.341 6.798 1.54 10.587c-4.802 3.789-7.959.363-7.959.363l6.419-10.95z"/>
    <path fill="#000" d="M196.012 147.483s6.341 6.798 1.54 10.587c-4.802 3.789-7.959.363-7.959.363l6.419-10.95z" opacity=".1"/>
    <path fill="#FFB0B1" d="M144.775 102.788s.743.707 1.862 1.75c1.594 1.491 3.954 3.671 6.047 5.497 2.899 2.525 5.291 4.378 4.435 2.796-.856-1.581-.693-4.337-.268-6.915.032-.173.059-.345.091-.513.353-1.893.82-3.764 1.4-5.601 0 0-4.684-6.055-7.275-8.443-.965-.907-1.64-1.278-1.681-.648-.045.847-.679 2.719-1.467 4.704-.023.063-.046.122-.073.186-.525 1.36-1.119 2.755-1.64 3.96-.797 1.85-1.431 3.227-1.431 3.227z"/>
    <path fill="#000" d="M147.846 95.6c.44 2.37 1.508 4.576 3.092 6.391 1.585 1.814 3.627 3.17 5.913 3.925.361-2.069.859-4.112 1.491-6.114 0 0-8.82-11.398-8.956-9.091-.031.874-.72 2.814-1.54 4.89zM157.731 108.961l-1.142-1.609s-.756 4.614-3.538 2.579c-2.781-2.035-2.917 15.314-2.917 15.314l2.985 44.654 21.571-1.292-.611-21.577-2.442-10.877-6.038-15.812-3.592-5.226-4.276-6.154z" opacity=".1"/>
    <path fill="#05548A" d="M150.133 125.521l2.718 40.376.285 4.279 12.027-.721.453-.027 9.06-.544-.612-21.582-2.441-10.877-6.039-15.812-3.592-5.226-4.276-6.177-1.141-1.604s-.757 4.614-3.538 2.579l-.059-.041c-2.718-1.722-2.845 15.377-2.845 15.377z"/>
    <path fill="#fff" d="M171.321 132.646s1.082 2.266 3.257 1.898c2.174-.367 2.17 8.158 2.17 8.158s1.445 1.36 2.441.181c.997-1.178 3.624 2.806 3.624 2.806l16.461.725s-7.324 3.349-5.888 13.483c0 0-24.869-1.541-25.684-3.893-.816-2.352 3.619-23.358 3.619-23.358z"/>
    <path fill="#000" d="M171.321 132.646s1.082 2.266 3.257 1.898c2.174-.367 2.17 8.158 2.17 8.158s1.445 1.36 2.441.181c.997-1.178 3.624 2.806 3.624 2.806l16.461.725s-7.324 3.349-5.888 13.483c0 0-24.869-1.541-25.684-3.893-.816-2.352 3.619-23.358 3.619-23.358z" opacity=".03"/>
    <path fill="#fff" d="M219.159 151.739l-4.339 3.707-35.723 7.51 4.431-4.523 35.631-6.694zM157.663 110.389c.593.906 2.292 5.547 3.71 9.599 1.182 3.376 2.169 6.345 2.169 6.345s2.306 15.019 3.484 17.734c1.178 2.714.539 13.301.539 13.301l4.389 26.146s1.989 13.482 5.06 21.536c3.031 7.927 6.405 11.643 6.509 11.761-1.359-1.84-8.765-38.07-8.765-38.07l-2.446-45.692s-.358-4.342-.72-8.053c-.362-3.712-7.701-8.779-7.701-8.779l-7.075-10.066c-.712.952-.236 2.611.847 4.238z"/>
    <path fill="#FFB0B1" d="M176.112 169.11s10.419-.453 15.465-6.517c5.046-6.064-11.664-2.42-11.664-2.42l-4.345.997.544 7.94z"/>
    <path fill="#000" d="M127.457 238.51c.558 1.975.648 4.053.263 6.068 11.365.807 23.523-2.266 23.523-2.266 2.265 2.085 8.231 5.158 8.231 5.158l3.253-40.336c2.079-5.438 2.894-33.931 2.894-33.931s-.186-1.491-.453-3.725c0-.055 0-.114-.023-.168-.81-6.241-2.418-17.956-3.207-19.538-1.087-2.175 3.343-7.963 3.343-7.963l-2.015-17.199-.245-2.075c-4.249-1.899-7.506-7.963-7.506-7.963l-2.5-4.383c-2.718-1.745-2.859 15.355-2.859 15.355l2.718 40.376-9.005-2.488s-17.947 69.92-16.412 75.078z" opacity=".1"/>
    <path fill="#fff" d="M115.793 241.297c12.389 6.155 34.906.453 34.906.453 2.265 2.085 8.231 5.158 8.231 5.158l3.257-40.336c2.075-5.438 2.89-33.931 2.89-33.931s-2.618-21.26-3.705-23.431c-.317-.634-.163-1.577.213-2.592 1.848-4.832 2.528-10.033 1.984-15.178l-.87-7.392-.24-2.071c-4.254-1.903-7.511-7.967-7.511-7.967l-2.264-3.97-4.168-7.315-1.975-3.462-.335.303-2.559 2.321-2.718 2.266c-3.547 2.991-9.676 8.257-12.838 11.479-2.781 2.837-3.66 13.873-3.914 22.18-.167 5.47-.068 9.758-.068 9.758 2.804 4.618-4.529 41.695-4.529 41.695-1.708 7.165-3.787 52.032-3.787 52.032z"/>
    <path fill="#000" d="M139.575 113.919s8.502 16.193 7.514 22.348c-.987 6.154-3.796 13.12-2.441 14.747.465.616 1.067 1.117 1.758 1.462.69.345 1.452.526 2.224.527 1.359.091 4.982 2.625 4.982 2.896 0 .272 3.348.272 6.342 1.541 2.994 1.269 7.416 1.99 7.416 1.99s8.606-.272 9.408.544c.802.816 1.626 5.697-.091 9.59-1.716 3.893-3.624 6.798-5.064 7.328-1.44.53-10.582-2.533-17.997-3.259-7.415-.725-15.465-6.603-15.465-6.603s-8.865-3.172-10.418-8.506c-1.554-5.335 1.898-34.653 1.898-34.653s2.609-13.664 9.934-9.952z" opacity=".03"/>
    <path fill="#000" d="M140.663 112.56s8.502 16.197 7.506 22.347c-.997 6.15-3.796 13.12-2.437 14.752.463.617 1.064 1.118 1.754 1.463.69.346 1.451.526 2.223.527 1.359.09 4.983 2.624 4.983 2.896 0 .271 3.347.272 6.341 1.536 2.995 1.264 7.416 1.99 7.416 1.99s8.606-.272 9.404.543c.797.816 1.63 5.702-.091 9.59-1.721 3.889-3.624 6.798-5.064 7.329-1.441.53-10.582-2.534-17.997-3.254-7.416-.721-15.465-6.608-15.465-6.608s-8.86-3.173-10.396-8.502c-1.536-5.33 1.898-34.657 1.898-34.657s2.6-13.66 9.925-9.952z" opacity=".03"/>
    <path fill="#fff" d="M139.842 113.103s8.503 16.198 7.506 22.348c-.996 6.15-3.796 13.12-2.441 14.747.463.619 1.065 1.121 1.756 1.467.691.346 1.453.526 2.225.527 1.359.091 4.983 2.624 4.983 2.892 0 .267 3.343.272 6.342 1.541 2.999 1.268 7.415 1.989 7.415 1.989s8.607-.272 9.409.544c.802.816 1.626 5.701-.091 9.59-1.717 3.888-3.624 6.798-5.064 7.328-1.441.53-10.582-2.533-17.997-3.258-7.415-.726-15.465-6.604-15.465-6.604s-8.865-3.172-10.419-8.506c-1.553-5.335 1.876-34.652 1.876-34.652s2.645-13.642 9.965-9.953z"/>
    <path fill="#000" d="M140.027 156.548s6.795-1.36 4.43.906c-2.364 2.266-2.351 4.251-5.245 4.16-2.895-.09.815-5.066.815-5.066zM128.545 205.303s3.072 2.081-2.804 6.876c-5.875 4.795 2.804-6.876 2.804-6.876zM134.406 222.403c0 .272 1.087 9.97-2.98 12.395-4.068 2.425 2.98-12.395 2.98-12.395z" opacity=".1"/>
    <path fill="#FFB0B1" d="M198.992 146.391c3.28.114 10.365 1.115 6.691 7.972-3.248 6.069-8.706 2.012-11.778-1.065.75-2.869 2.57-5.341 5.087-6.907zM193.865 153.244l-.136-.141.136.141z"/>
    <path fill="#000" d="M140.93 104.429c3.479 2.38 6.396 4.387 6.967 4.804 1.558 1.156 4.53 7.94 6.446 11.403 1.526 2.787 6.486 3.503 8.357 3.68l-.24-2.071c-4.253-1.904-7.51-7.968-7.51-7.968l-8.408-14.747-2.894 2.633-2.718 2.266z" opacity=".1"/>
    <path fill="#CCE4F5" d="M140.93 104.157c3.479 2.379 6.396 4.387 6.967 4.808 1.558 1.152 4.53 7.936 6.446 11.399 1.526 2.787 6.486 3.503 8.357 3.68l-.24-2.072c-4.253-1.903-7.51-7.967-7.51-7.967l-8.408-14.747-2.894 2.624s-1.087.897-2.718 2.275z"/>
    <path fill="#FFB0B1" d="M147.625 92.61c-.002 2.72.823 5.377 2.365 7.618 1.821 2.649 4.531 4.558 7.638 5.38 3.107.821 6.406.501 9.297-.902 2.892-1.404 5.185-3.798 6.463-6.749 1.278-2.95 1.457-6.26.504-9.332-.953-3.07-2.975-5.698-5.699-7.405-2.724-1.707-5.969-2.38-9.146-1.898-3.178.481-6.077 2.087-8.173 4.525s-3.248 5.547-3.249 8.762z"/>
    <path fill="#000" d="M124.177 137.817c1.84-1.133 3.338-2.743 4.335-4.659.757-1.496 1.259-3.223 2.55-4.283 1.165-.952 2.718-1.183 4.168-1.609 4.765-1.41 8.761-5.76 8.91-10.727.073-2.339-.657-4.673-.326-6.989.188-1.311.709-2.551 1.513-3.603.399-.503.837-.974 1.309-1.409.634-.599 1.3-1.179 1.88-1.813.365-.393.684-.826.951-1.292.216-.381.39-.783.521-1.201.906-2.773.082-6.064 1.078-8.87l.055-.153c.376-.997 1.141-1.994 2.206-2.071 1.064-.077 1.975.806 2.989 1.2 2.125.826 4.417-.58 6.188-2.011 1.771-1.433 3.769-3.069 6.02-2.751 1.49.213 2.668 1.228 4.041 1.753.31.12.629.213.956.277-1.162-2.898-3.296-5.301-6.036-6.796-2.74-1.495-5.915-1.989-8.979-1.396-3.065.592-5.827 2.234-7.813 4.643-1.986 2.409-3.071 5.434-3.069 8.557-.002.943.097 1.883.294 2.805-.023.064-.045.123-.073.186-.525 1.36-1.118 2.755-1.639 3.96l-2.56 2.321-2.718 2.266c-3.546 2.992-9.675 8.258-12.837 11.48-2.781 2.846-3.651 13.877-3.914 22.185z" opacity=".1"/>
    <path fill="#363D45" d="M172.724 79.05c-.647-1.32-.969-2.797-1.744-4.048-1.137-1.813-3.121-2.973-5.159-3.675-5.323-1.836-16.57-4.5-19.931 0-.662.906-1.21 1.912-2.125 2.537-.697.476-1.54.68-2.305 1.038-2.143 1.006-3.511 3.2-4.24 5.439-.73 2.239-.947 4.64-1.482 6.947-.684 2.96-1.884 5.765-3.08 8.552-1.409 3.29-2.904 6.703-5.621 9.028-3.71 3.173-4.53 7.664-7.973 11.145-4.077 4.133-3.945 10.954-1.844 16.369.277.712.589 1.455.481 2.212-.109.757-.671 1.446-1.201 2.048l-2.228 2.516c5.272 1.273 11.238-1.482 13.693-6.318.757-1.495 1.259-3.218 2.555-4.283 1.16-.951 2.718-1.178 4.163-1.604 4.765-1.414 8.761-5.769 8.91-10.736.073-2.335-.657-4.669-.326-6.98.184-1.319.707-2.569 1.517-3.626 1.246-1.627 3.126-2.719 4.141-4.532 1.717-3.031.412-6.97 1.649-10.224.38-.997 1.141-1.994 2.206-2.071 1.064-.077 1.975.807 2.994 1.2 2.12.826 4.412-.575 6.183-2.011 1.771-1.437 3.769-3.069 6.025-2.747 1.49.209 2.663 1.224 4.036 1.754 1.014.39 3.071.739 3.959-.118 1.875-1.726-2.469-6.2-3.253-7.813z"/>
    <path fill="#000" d="M126.706 131.345c.761-1.496 1.259-3.218 2.555-4.278 1.159-.952 2.718-1.183 4.167-1.609 4.761-1.41 8.756-5.765 8.91-10.732.073-2.334-.656-4.673-.33-6.984.189-1.311.712-2.551 1.517-3.603 1.25-1.627 3.13-2.719 4.14-4.532 1.717-3.027.413-6.966 1.654-10.224.376-.993 1.141-1.99 2.201-2.071 1.06-.082 1.98.81 2.995 1.205 2.119.825 4.416-.58 6.183-2.012 1.766-1.432 3.773-3.068 6.024-2.751 1.491.213 2.668 1.228 4.036 1.754 1.015.39 3.076.743 3.964-.114 1.866-1.812-2.478-6.276-3.257-7.88-.648-1.324-.969-2.797-1.748-4.048-.041-.068-.086-.136-.132-.204.583.483 1.086 1.055 1.491 1.695.774 1.251 1.096 2.72 1.744 4.047.783 1.605 5.127 6.082 3.256 7.882-.906.86-2.944.507-3.959.117-1.359-.53-2.545-1.545-4.036-1.754-2.265-.321-4.258 1.315-6.024 2.747-1.767 1.432-4.077 2.837-6.188 2.012-1.015-.394-1.903-1.282-2.99-1.2-1.087.08-1.812 1.073-2.206 2.07-1.236 3.254.068 7.193-1.649 10.225-1.014 1.781-2.894 2.896-4.14 4.532-.811 1.057-1.333 2.306-1.517 3.625-.331 2.312.398 4.646.326 6.98-.15 4.985-4.145 9.322-8.91 10.736-1.436.426-3.004.653-4.163 1.604-1.3 1.066-1.812 2.788-2.555 4.283-2.455 4.836-8.421 7.591-13.694 6.318l1.051-1.187c4.571.068 9.196-2.534 11.284-6.649z" opacity=".1"/>
    <path fill="#000" d="M157.935 110.66c.593.907 2.292 5.548 3.71 9.599 1.327-.516 2.532-3.811 2.532-3.811l-7.076-10.07c-.725.997-.249 2.651.834 4.282z" opacity=".1"/>
    <path fill="#CCE4F5" d="M157.663 110.389c.594.906 2.292 5.547 3.71 9.599 1.327-.513 2.532-3.812 2.532-3.812l-7.075-10.066c-.725.993-.249 2.652.833 4.279z"/>
    <path fill="#BE8B87" d="M198.802 156.688l3.923-12.377c.047-.145.064-.298.051-.449-.012-.152-.055-.3-.125-.435s-.166-.255-.282-.353c-.116-.098-.251-.172-.396-.218-.292-.091-.608-.063-.879.078-.272.141-.477.383-.57.675l-3.923 12.363.389 2.588 1.812-1.872z"/>
    <path fill="#fff" d="M202.354 143.223c-.293-.092-.61-.065-.883.076-.272.141-.478.384-.571.677l-3.923 12.363.294 1.94-.285.299-.39-2.588 3.946-12.363c.093-.292.298-.534.57-.675.271-.141.587-.169.879-.078.246.08.458.239.603.453-.077-.041-.158-.076-.24-.104z" opacity=".1"/>
    <path fill="#EFC8C4" d="M198.803 156.688l-2.202-.698.322 2.121.068.467.643-.671 1.169-1.219z"/>
    <path fill="#727A9C" d="M197.634 157.907c-.039-.048-.086-.088-.141-.118-.031-.02-.068-.03-.106-.03-.038 0-.075.01-.107.03-.03.038-.056.079-.077.123-.029.05-.07.092-.119.124-.048.033-.104.053-.161.061l.068.453.643-.643z"/>
    <path fill="#FFB0B1" d="M202.748 148.707s-7.868-.045-6.016 3.304c1.853 3.349 4.748 3.752 4.748 3.752l1.268-7.056z"/>
    <path fill="#B3B6BA" d="M306.798 402.111H199.444c-1.511.001-2.96.61-4.028 1.692-1.069 1.082-1.67 2.55-1.671 4.08v17.621c.001 1.531.602 2.998 1.671 4.081 1.068 1.082 2.517 1.69 4.028 1.692h107.354c1.511-.002 2.96-.61 4.028-1.692 1.069-1.083 1.669-2.55 1.671-4.081v-17.621c-.002-1.53-.602-2.998-1.671-4.08-1.068-1.082-2.517-1.691-4.028-1.692z" opacity=".2"/>
    <path fill="#B3B6BA" d="M306.898 360.423H199.545c-1.511.002-2.96.61-4.028 1.693-1.069 1.082-1.67 2.549-1.671 4.08v17.621c.001 1.53.602 2.998 1.671 4.08 1.068 1.082 2.517 1.691 4.028 1.692h107.353c1.511-.001 2.96-.61 4.029-1.692 1.068-1.082 1.669-2.55 1.671-4.08v-17.621c-.002-1.531-.603-2.998-1.671-4.08-1.069-1.083-2.518-1.691-4.029-1.693zm5.1 23.394c-.002 1.369-.54 2.681-1.496 3.65-.956.968-2.252 1.513-3.604 1.514H199.545c-1.352-.001-2.648-.546-3.604-1.514-.956-.969-1.493-2.281-1.495-3.65v-17.621c.002-1.369.539-2.682 1.495-3.65.956-.968 2.252-1.513 3.604-1.515h107.353c1.352.002 2.648.547 3.604 1.515.956.968 1.494 2.281 1.496 3.65v17.621z"/>
    <path fill="#31A598" d="M221.39 385.053c-1.961 0-3.879-.589-5.511-1.693-1.631-1.104-2.902-2.673-3.653-4.509-.751-1.836-.947-3.856-.565-5.805.383-1.949 1.328-3.739 2.715-5.144 1.387-1.405 3.155-2.362 5.079-2.749 1.924-.388 3.919-.189 5.731.571 1.813.761 3.362 2.048 4.452 3.701 1.09 1.652 1.672 3.594 1.672 5.581-.003 2.664-1.049 5.218-2.909 7.101-1.859 1.884-4.381 2.943-7.011 2.946z"/>
    <path fill="#B3B6BA" d="M292.25 383.21h-51.56c-.637 0-1.247-.256-1.697-.712-.45-.456-.703-1.074-.703-1.719 0-.644.253-1.263.703-1.718.45-.456 1.06-.712 1.697-.712h51.56c.636 0 1.247.256 1.697.712.45.455.702 1.074.702 1.718 0 .645-.252 1.263-.702 1.719-.45.456-1.061.712-1.697.712zM257.754 372.88H240.69c-.637 0-1.247-.256-1.697-.712-.45-.455-.703-1.074-.703-1.718 0-.645.253-1.263.703-1.719.45-.456 1.06-.712 1.697-.712h17.064c.636 0 1.247.256 1.697.712.45.456.703 1.074.703 1.719 0 .644-.253 1.263-.703 1.718-.45.456-1.061.712-1.697.712z"/>
    <path fill="#fff" d="M220.885 378.541c-.246 0-.486-.081-.683-.23l-.012-.009-2.571-1.992c-.12-.093-.22-.208-.295-.34-.075-.131-.124-.277-.144-.427-.02-.151-.01-.304.029-.451.038-.147.105-.285.197-.406.091-.121.205-.222.335-.298.13-.076.274-.125.423-.145.149-.02.3-.01.445.03.145.039.281.107.4.2l1.665 1.293 3.936-5.2c.091-.12.205-.221.335-.297.129-.076.273-.126.421-.146.149-.019.3-.009.445.03.145.039.281.107.4.199v.001l-.024.034.025-.034c.24.186.397.462.437.766.039.304-.042.612-.226.856l-4.629 6.113c-.107.141-.244.255-.402.333-.158.078-.331.119-.506.118l-.001.002zM260.771 407.834H153.418c-1.511.002-2.96.61-4.028 1.692-1.069 1.083-1.67 2.55-1.671 4.081v17.621c.001 1.53.602 2.998 1.671 4.08 1.068 1.082 2.517 1.691 4.028 1.692h107.353c1.511-.001 2.96-.61 4.029-1.692 1.068-1.082 1.669-2.55 1.671-4.08v-17.621c-.002-1.531-.603-2.998-1.671-4.081-1.069-1.082-2.518-1.69-4.029-1.692z"/>
    <path fill="#31A598" d="M175.265 432.463c-1.962 0-3.88-.589-5.512-1.693-1.631-1.104-2.902-2.673-3.653-4.509-.751-1.835-.947-3.856-.565-5.804.383-1.949 1.328-3.74 2.715-5.145 1.387-1.405 3.155-2.362 5.079-2.749 1.924-.388 3.919-.189 5.732.571 1.812.761 3.361 2.049 4.451 3.701 1.09 1.652 1.672 3.594 1.672 5.582-.003 2.663-1.049 5.217-2.909 7.1-1.859 1.884-4.381 2.943-7.01 2.946z"/>
    <path fill="#B3B6BA" d="M246.124 430.62h-51.56c-.637 0-1.247-.257-1.697-.712-.45-.456-.703-1.074-.703-1.719s.253-1.263.703-1.719c.45-.455 1.06-.711 1.697-.711h51.56c.636 0 1.247.256 1.697.711.45.456.702 1.074.702 1.719s-.252 1.263-.702 1.719c-.45.455-1.061.712-1.697.712zM211.628 420.29h-17.064c-.315 0-.627-.063-.919-.185-.291-.123-.555-.302-.778-.527-.223-.226-.4-.494-.52-.789-.121-.295-.183-.611-.183-.93 0-.319.062-.635.183-.93.12-.295.297-.563.52-.788.223-.226.487-.405.778-.527.292-.122.604-.185.919-.185h17.064c.636 0 1.247.256 1.697.712.45.455.703 1.074.703 1.718 0 .645-.253 1.263-.703 1.719-.45.456-1.061.712-1.697.712z"/>
    <path fill="#fff" d="M174.758 425.951c-.246 0-.486-.08-.683-.23l-.012-.009-2.571-1.992c-.12-.093-.22-.208-.295-.339-.075-.132-.124-.277-.144-.428-.02-.151-.01-.304.029-.451.038-.147.105-.285.197-.406.091-.121.205-.222.335-.298.13-.076.274-.125.423-.145.149-.02.3-.01.445.03.145.039.281.107.4.2l1.665 1.293 3.936-5.199c.091-.121.205-.222.335-.298.129-.076.273-.125.421-.145.149-.02.3-.01.445.029.145.039.281.107.4.199v.001l-.024.034.025-.034c.24.187.397.462.437.766.039.305-.042.612-.226.856l-4.629 6.113c-.107.141-.244.255-.402.333-.158.079-.331.119-.506.118l-.001.002z"/>
    <defs>
        <linearGradient id="paint0_linear" x1="-100541" x2="-100541" y1="210390" y2="67241.2" gradientUnits="userSpaceOnUse">
            <stop stop-color="gray" stop-opacity=".25"/>
            <stop offset=".54" stop-color="gray" stop-opacity=".12"/>
            <stop offset="1" stop-color="gray" stop-opacity=".1"/>
        </linearGradient>
        <clipPath id="clip0">
            <path fill="#fff" d="M0 0H90.785V269.32H0z" transform="matrix(-1 0 0 1 423 150.216)"/>
        </clipPath>
    </defs>
</svg>
